<svg width="12" height="12" viewBox="0 0 12 12" fill="none" xmlns="http://www.w3.org/2000/svg">
<path opacity="0.5" d="M10.9428 3.21161C11.1574 2.95912 11.5361 2.92842 11.7886 3.14303C12.0411 3.35764 12.0718 3.7363 11.8572 3.98878L6.75716 9.98878C6.53918 10.2452 6.15294 10.2722 5.90138 10.0486L3.20138 7.64863C2.95371 7.42848 2.93141 7.04924 3.15156 6.80157C3.37171 6.5539 3.75095 6.53159 3.99862 6.75175L6.24013 8.7442L10.9428 3.21161Z" fill="white"/>
<path d="M7.94283 3.81122C8.15744 3.55873 8.53609 3.52803 8.78858 3.74264C9.04106 3.95725 9.07176 4.33591 8.85715 4.58839L3.75716 10.5884C3.53918 10.8448 3.15294 10.8718 2.90138 10.6482L0.201384 8.24824C-0.0462856 8.02809 -0.0685949 7.64885 0.151556 7.40118C0.371706 7.15351 0.75095 7.1312 0.998619 7.35135L3.24013 9.34381L7.94283 3.81122Z" fill="white"/>
</svg>
