<svg width="14" height="14" viewBox="0 0 14 14" fill="none" xmlns="http://www.w3.org/2000/svg">
<path opacity="0.25" fill-rule="evenodd" clip-rule="evenodd" d="M6.99984 2.33317C4.42251 2.33317 2.33317 4.42251 2.33317 6.99984C2.33317 9.57717 4.42251 11.6665 6.99984 11.6665C7.74592 11.6665 8.44953 11.4919 9.07357 11.1817C9.36207 11.0384 9.71218 11.156 9.85555 11.4445C9.99893 11.733 9.88128 12.0831 9.59277 12.2265C8.81102 12.615 7.93007 12.8332 6.99984 12.8332C3.77818 12.8332 1.1665 10.2215 1.1665 6.99984C1.1665 3.77818 3.77818 1.1665 6.99984 1.1665C10.2215 1.1665 12.8332 3.77818 12.8332 6.99984V7.00504C12.8332 7.16389 12.8333 7.82321 12.6209 8.46035C12.5126 8.78549 12.3357 9.1465 12.0376 9.43135C11.7256 9.72947 11.3084 9.9165 10.7915 9.9165C10.4693 9.9165 10.2082 9.65534 10.2082 9.33317C10.2082 9.011 10.4693 8.74984 10.7915 8.74984C11.0037 8.74984 11.1334 8.68167 11.2316 8.58786C11.3437 8.48078 11.4402 8.31314 11.5141 8.09141C11.6639 7.64201 11.6665 7.14238 11.6665 6.99984C11.6665 4.42251 9.57717 2.33317 6.99984 2.33317Z" fill="#5E6278"/>
<path fill-rule="evenodd" clip-rule="evenodd" d="M8.75016 7.00016C8.75016 7.96666 7.96666 8.75016 7.00016 8.75016C6.03366 8.75016 5.25016 7.96666 5.25016 7.00016C5.25016 6.03366 6.03366 5.25016 7.00016 5.25016C7.96666 5.25016 8.75016 6.03366 8.75016 7.00016ZM9.18798 8.92905C8.65353 9.53477 7.87146 9.91683 7.00016 9.91683C5.38933 9.91683 4.0835 8.61099 4.0835 7.00016C4.0835 5.38933 5.38933 4.0835 7.00016 4.0835C7.65677 4.0835 8.2627 4.30047 8.75017 4.66662C8.75028 4.34455 9.0114 4.0835 9.3335 4.0835C9.65567 4.0835 9.91683 4.34466 9.91683 4.66683C9.91683 6.15614 9.92045 7.24227 10.0846 7.96463C10.1649 8.31798 10.2687 8.50737 10.3657 8.60656C10.443 8.68554 10.5563 8.75016 10.7918 8.75016C11.114 8.75016 11.3752 9.01133 11.3752 9.3335C11.3752 9.65566 11.114 9.91683 10.7918 9.91683C10.2982 9.91683 9.86464 9.7627 9.53175 9.42241C9.39017 9.27768 9.27791 9.11039 9.18798 8.92905Z" fill="#5E6278"/>
</svg>
