<svg width="11" height="12" viewBox="0 0 11 12" fill="none" xmlns="http://www.w3.org/2000/svg">
<path opacity="0.3" d="M6.86177 8.80506C6.60142 8.54471 6.60142 8.1226 6.86177 7.86225C7.12212 7.6019 7.54423 7.6019 7.80458 7.86225L10.4712 10.5289C10.7316 10.7893 10.7316 11.2114 10.4712 11.4717C10.2109 11.7321 9.78878 11.7321 9.52843 11.4717L6.86177 8.80506Z" fill="#7E8299"/>
<path fill-rule="evenodd" clip-rule="evenodd" d="M0 5.00016C0 7.57749 2.08934 9.66683 4.66667 9.66683C7.244 9.66683 9.33333 7.57749 9.33333 5.00016C9.33333 2.42283 7.244 0.333496 4.66667 0.333496C2.08934 0.333496 0 2.42283 0 5.00016ZM7.99998 5.00017C7.99998 6.84111 6.50759 8.3335 4.66664 8.3335C2.82569 8.3335 1.33331 6.84111 1.33331 5.00017C1.33331 3.15922 2.82569 1.66683 4.66664 1.66683C6.50759 1.66683 7.99998 3.15922 7.99998 5.00017Z" fill="#7E8299"/>
</svg>
