<svg width="12" height="12" viewBox="0 0 12 12" fill="none" xmlns="http://www.w3.org/2000/svg">
<path opacity="0.6" fill-rule="evenodd" clip-rule="evenodd" d="M4.69566 6.10256C3.54307 6.10256 2.6087 5.18417 2.6087 4.05128C2.6087 2.91839 3.54307 2 4.69566 2C5.84825 2 6.78262 2.91839 6.78262 4.05128C6.78262 5.18417 5.84825 6.10256 4.69566 6.10256ZM9.91305 6.10258C9.6249 6.10258 9.39131 5.86899 9.39131 5.58084V4.5641H8.33891C8.05569 4.5641 7.82609 4.3345 7.82609 4.05128C7.82609 3.76805 8.05569 3.53846 8.33891 3.53846H9.39131V2.52175C9.39131 2.2336 9.6249 2.00001 9.91305 2.00001C10.2012 2.00001 10.4348 2.2336 10.4348 2.52175V3.53846H11.4872C11.7704 3.53846 12 3.76805 12 4.05128C12 4.3345 11.7704 4.5641 11.4872 4.5641H10.4348V5.58084C10.4348 5.86899 10.2012 6.10258 9.91305 6.10258Z" fill="#A1A5B7"/>
<path d="M0.000334197 10.8613C0.199107 8.6585 2.1856 7.53857 4.60684 7.53857C7.06216 7.53857 9.07943 8.59697 9.2297 10.8617C9.23569 10.9519 9.2297 11.2309 8.84446 11.2309C6.94417 11.2309 4.12037 11.2309 0.373078 11.2309C0.244468 11.2309 -0.0104932 10.9813 0.000334197 10.8613Z" fill="#A1A5B7"/>
</svg>
